<?xml version="1.0" encoding="UTF-8"?><!DOCTYPE score-partwise PUBLIC "-//Recordare//DTD MusicXML 1.0 Partwise//EN"                                "http://www.musicxml.org/dtds/partwise.dtd"><score-partwise>  <movement-title>Prelude Op. 28-20</movement-title>  <identification>    <creator type="composer">Frederic Chopin</creator>    <rights>ISBN4-636-55002-1 (c) CrestMusePEDB ver. 1.0</rights>    <encoding>      <software>Finale for Macintosh</software>      <software>Dolet Light for Finale 2007</software>      <encoding-date>2009-08-04</encoding-date>    </encoding>  </identification>  <part-list>    <score-part id="P1">      <part-name>MusicXML Part</part-name>      <score-instrument id="P1-I1">        <instrument-name>Acoustic Grand Piano</instrument-name>      </score-instrument>      <midi-instrument id="P1-I1">        <midi-channel>1</midi-channel>        <midi-program>1</midi-program>      </midi-instrument>    </score-part>  </part-list>  <!--=========================================================-->  <part id="P1">    <measure number="1">      <attributes>        <divisions>8</divisions>        <key>          <fifths>-3</fifths>          <mode>minor</mode>        </key>        <time symbol="common">          <beats>4</beats>          <beat-type>4</beat-type>        </time>        <staves>2</staves>        <clef number="1">          <sign>F</sign>          <line>4</line>        </clef>        <clef number="2">          <sign>F</sign>          <line>4</line>        </clef>      </attributes>      <direction placement="above">        <direction-type>          <words default-y="51" font-family="Times New Roman" font-size="14" font-weight="bold" relative-x="-44">Largo</words>        </direction-type>        <staff>1</staff>        <sound tempo="40"/>      </direction>      <direction placement="below">        <direction-type>          <dynamics default-y="-87">            <ff/>          </dynamics>        </direction-type>        <offset>1</offset>        <staff>1</staff>        <sound dynamics="112"/>      </direction>      <note>        <pitch>          <step>G</step>          <octave>3</octave>        </pitch>        <duration>8</duration>        <voice>1</voice>        <type>quarter</type>        <stem>down</stem>        <staff>1</staff>        <notations>          <slur number="1" type="start"/>        </notations>      </note>      <note>        <chord/>        <pitch>          <step>C</step>          <octave>4</octave>        </pitch>        <duration>8</duration>        <voice>1</voice>        <type>quarter</type>        <stem>down</stem>        <staff>1</staff>      </note>      <note>        <chord/>        <pitch>          <step>E</step>          <alter>-1</alter>          <octave>4</octave>        </pitch>        <duration>8</duration>        <voice>1</voice>        <type>quarter</type>        <stem>down</stem>        <staff>1</staff>      </note>      <note>        <chord/>        <pitch>          <step>G</step>          <octave>4</octave>        </pitch>        <duration>8</duration>        <voice>1</voice>        <type>quarter</type>        <stem>down</stem>        <staff>1</staff>      </note>      <note>        <pitch>          <step>A</step>          <alter>-1</alter>          <octave>3</octave>        </pitch>        <duration>8</duration>        <voice>1</voice>        <type>quarter</type>        <stem>down</stem>        <staff>1</staff>      </note>      <note>        <chord/>        <pitch>          <step>C</step>          <octave>4</octave>        </pitch>        <duration>8</duration>        <voice>1</voice>        <type>quarter</type>        <stem>down</stem>        <staff>1</staff>      </note>      <note>        <chord/>        <pitch>          <step>E</step>          <alter>-1</alter>          <octave>4</octave>        </pitch>        <duration>8</duration>        <voice>1</voice>        <type>quarter</type>        <stem>down</stem>        <staff>1</staff>      </note>      <note>        <chord/>        <pitch>          <step>A</step>          <alter>-1</alter>          <octave>4</octave>        </pitch>        <duration>8</duration>        <voice>1</voice>        <type>quarter</type>        <stem>down</stem>        <staff>1</staff>      </note>      <note>        <pitch>          <step>E</step>          <alter>-1</alter>          <octave>4</octave>        </pitch>        <duration>6</duration>        <voice>1</voice>        <type>eighth</type>        <dot/>        <stem>up</stem>        <staff>1</staff>        <beam number="1">begin</beam>      </note>      <note>        <chord/>        <pitch>          <step>G</step>          <octave>4</octave>        </pitch>        <duration>6</duration>        <voice>1</voice>        <type>eighth</type>        <dot/>        <stem>up</stem>        <staff>1</staff>      </note>      <note>        <pitch>          <step>D</step>          <octave>4</octave>        </pitch>        <duration>2</duration>        <voice>1</voice>        <type>16th</type>        <stem>up</stem>        <staff>1</staff>        <beam number="1">end</beam>        <beam number="2">backward hook</beam>      </note>      <note>        <chord/>        <pitch>          <step>F</step>          <octave>4</octave>        </pitch>        <duration>2</duration>        <voice>1</voice>        <type>16th</type>        <stem>up</stem>        <staff>1</staff>      </note>      <note>        <pitch>          <step>E</step>          <alter>-1</alter>          <octave>3</octave>        </pitch>        <duration>8</duration>        <voice>1</voice>        <type>quarter</type>        <stem>down</stem>        <staff>1</staff>        <notations>          <slur number="1" type="stop"/>        </notations>      </note>      <note>        <chord/>        <pitch>          <step>G</step>          <octave>3</octave>        </pitch>        <duration>8</duration>        <voice>1</voice>        <type>quarter</type>        <stem>down</stem>        <staff>1</staff>      </note>      <note>        <chord/>        <pitch>          <step>C</step>          <octave>4</octave>        </pitch>        <duration>8</duration>        <voice>1</voice>        <type>quarter</type>        <stem>down</stem>        <staff>1</staff>      </note>      <note>        <chord/>        <pitch>          <step>E</step>          <alter>-1</alter>          <octave>4</octave>        </pitch>        <duration>8</duration>        <voice>1</voice>        <type>quarter</type>        <stem>down</stem>        <staff>1</staff>      </note>      <backup>        <duration>32</duration>      </backup>      <forward>        <duration>8</duration>        <voice>2</voice>        <staff>1</staff>      </forward>      <forward>        <duration>8</duration>        <voice>2</voice>        <staff>1</staff>      </forward>      <note>        <pitch>          <step>G</step>          <octave>3</octave>        </pitch>        <duration>8</duration>        <voice>2</voice>        <type>quarter</type>        <stem>down</stem>        <staff>1</staff>      </note>      <note>        <chord/>        <pitch>          <step>B</step>          <octave>3</octave>        </pitch>        <duration>8</duration>        <voice>2</voice>        <type>quarter</type>        <accidental>natural</accidental>        <stem>down</stem>        <staff>1</staff>      </note>      <forward>        <duration>8</duration>        <voice>2</voice>        <staff>1</staff>      </forward>      <backup>        <duration>32</duration>      </backup>      <direction placement="above">        <direction-type>          <words default-y="51" font-family="Times New Roman" font-size="14" font-weight="bold" relative-x="-44">Largo</words>        </direction-type>        <staff>2</staff>        <sound tempo="40"/>      </direction>      <direction placement="below">        <direction-type>          <dynamics default-y="-87">            <ff/>          </dynamics>        </direction-type>        <offset>1</offset>        <staff>2</staff>        <sound dynamics="112"/>      </direction>      <note>        <pitch>          <step>C</step>          <octave>2</octave>        </pitch>        <duration>8</duration>        <voice>3</voice>        <type>quarter</type>        <stem>up</stem>        <staff>2</staff>      </note>      <note>        <chord/>        <pitch>          <step>C</step>          <octave>3</octave>        </pitch>        <duration>8</duration>        <voice>3</voice>        <type>quarter</type>        <stem>up</stem>        <staff>2</staff>      </note>      <note>        <pitch>          <step>F</step>          <octave>1</octave>        </pitch>        <duration>8</duration>        <voice>3</voice>        <type>quarter</type>        <stem>up</stem>        <staff>2</staff>      </note>      <note>        <chord/>        <pitch>          <step>F</step>          <octave>2</octave>        </pitch>        <duration>8</duration>        <voice>3</voice>        <type>quarter</type>        <stem>up</stem>        <staff>2</staff>      </note>      <note>        <pitch>          <step>G</step>          <octave>1</octave>        </pitch>        <duration>8</duration>        <voice>3</voice>        <type>quarter</type>        <stem>up</stem>        <staff>2</staff>      </note>      <note>        <chord/>        <pitch>          <step>G</step>          <octave>2</octave>        </pitch>        <duration>8</duration>        <voice>3</voice>        <type>quarter</type>        <stem>up</stem>        <staff>2</staff>      </note>      <note>        <pitch>          <step>C</step>          <octave>2</octave>        </pitch>        <duration>8</duration>        <voice>3</voice>        <type>quarter</type>        <stem>up</stem>        <staff>2</staff>      </note>      <note>        <chord/>        <pitch>          <step>C</step>          <octave>3</octave>        </pitch>        <duration>8</duration>        <voice>3</voice>        <type>quarter</type>        <stem>up</stem>        <staff>2</staff>      </note>    </measure>    <!--=======================================================-->    <measure number="2">      <note>        <pitch>          <step>E</step>          <alter>-1</alter>          <octave>3</octave>        </pitch>        <duration>8</duration>        <voice>1</voice>        <type>quarter</type>        <stem>down</stem>        <staff>1</staff>        <notations>          <slur number="1" type="start"/>        </notations>      </note>      <note>        <chord/>        <pitch>          <step>A</step>          <alter>-1</alter>          <octave>3</octave>        </pitch>        <duration>8</duration>        <voice>1</voice>        <type>quarter</type>        <stem>down</stem>        <staff>1</staff>      </note>      <note>        <chord/>        <pitch>          <step>C</step>          <octave>4</octave>        </pitch>        <duration>8</duration>        <voice>1</voice>        <type>quarter</type>        <stem>down</stem>        <staff>1</staff>      </note>      <note>        <chord/>        <pitch>          <step>E</step>          <alter>-1</alter>          <octave>4</octave>        </pitch>        <duration>8</duration>        <voice>1</voice>        <type>quarter</type>        <stem>down</stem>        <staff>1</staff>      </note>      <note>        <pitch>          <step>F</step>          <octave>3</octave>        </pitch>        <duration>8</duration>        <voice>1</voice>        <type>quarter</type>        <stem>down</stem>        <staff>1</staff>      </note>      <note>        <chord/>        <pitch>          <step>A</step>          <alter>-1</alter>          <octave>3</octave>        </pitch>        <duration>8</duration>        <voice>1</voice>        <type>quarter</type>        <stem>down</stem>        <staff>1</staff>      </note>      <note>        <chord/>        <pitch>          <step>D</step>          <alter>-1</alter>          <octave>4</octave>        </pitch>        <duration>8</duration>        <voice>1</voice>        <type>quarter</type>        <accidental>flat</accidental>        <stem>down</stem>        <staff>1</staff>      </note>      <note>        <chord/>        <pitch>          <step>F</step>          <octave>4</octave>        </pitch>        <duration>8</duration>        <voice>1</voice>        <type>quarter</type>        <stem>down</stem>        <staff>1</staff>      </note>      <note>        <pitch>          <step>C</step>          <octave>4</octave>        </pitch>        <duration>6</duration>        <voice>1</voice>        <type>eighth</type>        <dot/>        <stem>up</stem>        <staff>1</staff>        <beam number="1">begin</beam>      </note>      <note>        <chord/>        <pitch>          <step>E</step>          <alter>-1</alter>          <octave>4</octave>        </pitch>        <duration>6</duration>        <voice>1</voice>        <type>eighth</type>        <dot/>        <stem>up</stem>        <staff>1</staff>      </note>      <note>        <pitch>          <step>B</step>          <alter>-1</alter>          <octave>3</octave>        </pitch>        <duration>2</duration>        <voice>1</voice>        <type>16th</type>        <stem>up</stem>        <staff>1</staff>        <beam number="1">end</beam>        <beam number="2">backward hook</beam>      </note>      <note>        <chord/>        <pitch>          <step>D</step>          <alter>-1</alter>          <octave>4</octave>        </pitch>        <duration>2</duration>        <voice>1</voice>        <type>16th</type>        <stem>up</stem>        <staff>1</staff>      </note>      <note>        <pitch>          <step>C</step>          <octave>3</octave>        </pitch>        <duration>8</duration>        <voice>1</voice>        <type>quarter</type>        <stem>down</stem>        <staff>1</staff>        <notations>          <slur number="1" type="stop"/>        </notations>      </note>      <note>        <chord/>        <pitch>          <step>E</step>          <alter>-1</alter>          <octave>3</octave>        </pitch>        <duration>8</duration>        <voice>1</voice>        <type>quarter</type>        <stem>down</stem>        <staff>1</staff>      </note>      <note>        <chord/>        <pitch>          <step>A</step>          <alter>-1</alter>          <octave>3</octave>        </pitch>        <duration>8</duration>        <voice>1</voice>        <type>quarter</type>        <stem>down</stem>        <staff>1</staff>      </note>      <note>        <chord/>        <pitch>          <step>C</step>          <octave>4</octave>        </pitch>        <duration>8</duration>        <voice>1</voice>        <type>quarter</type>        <stem>down</stem>        <staff>1</staff>      </note>      <backup>        <duration>32</duration>      </backup>      <forward>        <duration>8</duration>        <voice>2</voice>        <staff>1</staff>      </forward>      <forward>        <duration>8</duration>        <voice>2</voice>        <staff>1</staff>      </forward>      <note>        <pitch>          <step>D</step>          <alter>-1</alter>          <octave>3</octave>        </pitch>        <duration>8</duration>        <voice>2</voice>        <type>quarter</type>        <accidental>flat</accidental>        <stem>down</stem>        <staff>1</staff>      </note>      <note>        <chord/>        <pitch>          <step>E</step>          <alter>-1</alter>          <octave>3</octave>        </pitch>        <duration>8</duration>        <voice>2</voice>        <type>quarter</type>        <stem>down</stem>        <staff>1</staff>      </note>      <note>        <chord/>        <pitch>          <step>G</step>          <octave>3</octave>        </pitch>        <duration>8</duration>        <voice>2</voice>        <type>quarter</type>        <stem>down</stem>        <staff>1</staff>      </note>      <forward>        <duration>8</duration>        <voice>2</voice>        <staff>1</staff>      </forward>      <backup>        <duration>32</duration>      </backup>      <note>        <pitch>          <step>A</step>          <alter>-1</alter>          <octave>1</octave>        </pitch>        <duration>8</duration>        <voice>3</voice>        <type>quarter</type>        <stem>up</stem>        <staff>2</staff>      </note>      <note>        <chord/>        <pitch>          <step>A</step>          <alter>-1</alter>          <octave>2</octave>        </pitch>        <duration>8</duration>        <voice>3</voice>        <type>quarter</type>        <stem>up</stem>        <staff>2</staff>      </note>      <note>        <pitch>          <step>D</step>          <alter>-1</alter>          <octave>1</octave>        </pitch>        <duration>8</duration>        <voice>3</voice>        <type>quarter</type>        <accidental>flat</accidental>        <stem>up</stem>        <staff>2</staff>      </note>      <note>        <chord/>        <pitch>          <step>D</step>          <alter>-1</alter>          <octave>2</octave>        </pitch>        <duration>8</duration>        <voice>3</voice>        <type>quarter</type>        <accidental>flat</accidental>        <stem>up</stem>        <staff>2</staff>      </note>      <note>        <pitch>          <step>E</step>          <alter>-1</alter>          <octave>1</octave>        </pitch>        <duration>8</duration>        <voice>3</voice>        <type>quarter</type>        <stem>up</stem>        <staff>2</staff>      </note>      <note>        <chord/>        <pitch>          <step>E</step>          <alter>-1</alter>          <octave>2</octave>        </pitch>        <duration>8</duration>        <voice>3</voice>        <type>quarter</type>        <stem>up</stem>        <staff>2</staff>      </note>      <note>        <pitch>          <step>A</step>          <alter>-1</alter>          <octave>1</octave>        </pitch>        <duration>8</duration>        <voice>3</voice>        <type>quarter</type>        <stem>up</stem>        <staff>2</staff>      </note>      <note>        <chord/>        <pitch>          <step>A</step>          <alter>-1</alter>          <octave>2</octave>        </pitch>        <duration>8</duration>        <voice>3</voice>        <type>quarter</type>        <stem>up</stem>        <staff>2</staff>      </note>    </measure>    <!--=======================================================-->    <measure number="3">      <direction placement="below">        <direction-type>          <wedge default-y="-92" spread="0" type="crescendo"/>        </direction-type>        <staff>1</staff>      </direction>      <note>        <pitch>          <step>D</step>          <octave>3</octave>        </pitch>        <duration>8</duration>        <voice>1</voice>        <type>quarter</type>        <stem>down</stem>        <staff>1</staff>        <notations>          <slur number="1" type="start"/>        </notations>      </note>      <note>        <chord/>        <pitch>          <step>F</step>          <octave>3</octave>        </pitch>        <duration>8</duration>        <voice>1</voice>        <type>quarter</type>        <stem>down</stem>        <staff>1</staff>      </note>      <note>        <chord/>        <pitch>          <step>B</step>          <octave>3</octave>        </pitch>        <duration>8</duration>        <voice>1</voice>        <type>quarter</type>        <accidental>natural</accidental>        <stem>down</stem>        <staff>1</staff>      </note>      <note>        <chord/>        <pitch>          <step>D</step>          <octave>4</octave>        </pitch>        <duration>8</duration>        <voice>1</voice>        <type>quarter</type>        <stem>down</stem>        <staff>1</staff>      </note>      <note>        <pitch>          <step>E</step>          <octave>3</octave>        </pitch>        <duration>8</duration>        <voice>1</voice>        <type>quarter</type>        <accidental>natural</accidental>        <stem>down</stem>        <staff>1</staff>      </note>      <note>        <chord/>        <pitch>          <step>G</step>          <octave>3</octave>        </pitch>        <duration>8</duration>        <voice>1</voice>        <type>quarter</type>        <stem>down</stem>        <staff>1</staff>      </note>      <note>        <chord/>        <pitch>          <step>B</step>          <alter>-1</alter>          <octave>3</octave>        </pitch>        <duration>8</duration>        <voice>1</voice>        <type>quarter</type>        <accidental>flat</accidental>        <stem>down</stem>        <staff>1</staff>      </note>      <note>        <chord/>        <pitch>          <step>C</step>          <octave>4</octave>        </pitch>        <duration>8</duration>        <voice>1</voice>        <type>quarter</type>        <stem>down</stem>        <staff>1</staff>      </note>      <note>        <chord/>        <pitch>          <step>E</step>          <octave>4</octave>        </pitch>        <duration>8</duration>        <voice>1</voice>        <type>quarter</type>        <accidental>natural</accidental>        <stem>down</stem>        <staff>1</staff>      </note>      <note>        <pitch>          <step>G</step>          <octave>4</octave>        </pitch>        <duration>6</duration>        <voice>1</voice>        <type>eighth</type>        <dot/>        <stem>up</stem>        <staff>1</staff>        <beam number="1">begin</beam>      </note>      <note>        <pitch>          <step>F</step>          <octave>4</octave>        </pitch>        <duration>2</duration>        <voice>1</voice>        <type>16th</type>        <stem>up</stem>        <staff>1</staff>        <beam number="1">end</beam>        <beam number="2">backward hook</beam>      </note>      <note>        <pitch>          <step>G</step>          <octave>3</octave>        </pitch>        <duration>8</duration>        <voice>1</voice>        <type>quarter</type>        <stem>down</stem>        <staff>1</staff>      </note>      <note>        <chord/>        <pitch>          <step>C</step>          <octave>4</octave>        </pitch>        <duration>8</duration>        <voice>1</voice>        <type>quarter</type>        <stem>down</stem>        <staff>1</staff>      </note>      <note>        <chord/>        <pitch>          <step>E</step>          <alter>-1</alter>          <octave>4</octave>        </pitch>        <duration>8</duration>        <voice>1</voice>        <type>quarter</type>        <accidental>flat</accidental>        <stem>down</stem>        <staff>1</staff>      </note>      <backup>        <duration>32</duration>      </backup>      <forward>        <duration>8</duration>        <voice>2</voice>        <staff>1</staff>      </forward>      <forward>        <duration>8</duration>        <voice>2</voice>        <staff>1</staff>      </forward>      <note>        <pitch>          <step>A</step>          <alter>-1</alter>          <octave>3</octave>        </pitch>        <duration>8</duration>        <voice>2</voice>        <type>quarter</type>        <stem>down</stem>        <staff>1</staff>      </note>      <note>        <chord/>        <pitch>          <step>C</step>          <octave>4</octave>        </pitch>        <duration>8</duration>        <voice>2</voice>        <type>quarter</type>        <stem>down</stem>        <staff>1</staff>      </note>      <forward>        <duration>8</duration>        <voice>2</voice>        <staff>1</staff>      </forward>      <backup>        <duration>32</duration>      </backup>      <note>        <pitch>          <step>G</step>          <octave>1</octave>        </pitch>        <duration>8</duration>        <voice>3</voice>        <type>quarter</type>        <stem>up</stem>        <staff>2</staff>      </note>      <note>        <chord/>        <pitch>          <step>G</step>          <octave>2</octave>        </pitch>        <duration>8</duration>        <voice>3</voice>        <type>quarter</type>        <stem>up</stem>        <staff>2</staff>      </note>      <note>        <pitch>          <step>C</step>          <octave>1</octave>        </pitch>        <duration>8</duration>        <voice>3</voice>        <type>quarter</type>        <stem>up</stem>        <staff>2</staff>      </note>      <note>        <chord/>        <pitch>          <step>C</step>          <octave>2</octave>        </pitch>        <duration>8</duration>        <voice>3</voice>        <type>quarter</type>        <stem>up</stem>        <staff>2</staff>      </note>      <note>        <pitch>          <step>F</step>          <octave>1</octave>        </pitch>        <duration>8</duration>        <voice>3</voice>        <type>quarter</type>        <stem>up</stem>        <staff>2</staff>      </note>      <note>        <chord/>        <pitch>          <step>F</step>          <octave>2</octave>        </pitch>        <duration>8</duration>        <voice>3</voice>        <type>quarter</type>        <stem>up</stem>        <staff>2</staff>      </note>      <note>        <pitch>          <step>C</step>          <octave>2</octave>        </pitch>        <duration>8</duration>        <voice>3</voice>        <type>quarter</type>        <stem>up</stem>        <staff>2</staff>      </note>      <note>        <chord/>        <pitch>          <step>C</step>          <octave>3</octave>        </pitch>        <duration>8</duration>        <voice>3</voice>        <type>quarter</type>        <stem>up</stem>        <staff>2</staff>      </note>    </measure>    <!--=======================================================-->    <measure number="4">      <note>        <pitch>          <step>F</step>          <alter>1</alter>          <octave>3</octave>        </pitch>        <duration>8</duration>        <voice>1</voice>        <type>quarter</type>        <accidental>sharp</accidental>        <stem>down</stem>        <staff>1</staff>      </note>      <note>        <chord/>        <pitch>          <step>C</step>          <octave>4</octave>        </pitch>        <duration>8</duration>        <voice>1</voice>        <type>quarter</type>        <stem>down</stem>        <staff>1</staff>      </note>      <note>        <chord/>        <pitch>          <step>D</step>          <octave>4</octave>        </pitch>        <duration>8</duration>        <voice>1</voice>        <type>quarter</type>        <stem>down</stem>        <staff>1</staff>      </note>      <direction>        <direction-type>          <wedge spread="12" type="stop"/>        </direction-type>        <offset>2</offset>        <staff>1</staff>      </direction>      <note>        <pitch>          <step>G</step>          <octave>3</octave>        </pitch>        <duration>8</duration>        <voice>1</voice>        <type>quarter</type>        <stem>down</stem>        <staff>1</staff>      </note>      <note>        <chord/>        <pitch>          <step>B</step>          <octave>3</octave>        </pitch>        <duration>8</duration>        <voice>1</voice>        <type>quarter</type>        <accidental>natural</accidental>        <stem>down</stem>        <staff>1</staff>      </note>      <note>        <chord/>        <pitch>          <step>D</step>          <octave>4</octave>        </pitch>        <duration>8</duration>        <voice>1</voice>        <type>quarter</type>        <stem>down</stem>        <staff>1</staff>      </note>      <note>        <chord/>        <pitch>          <step>G</step>          <octave>4</octave>        </pitch>        <duration>8</duration>        <voice>1</voice>        <type>quarter</type>        <stem>down</stem>        <staff>1</staff>      </note>      <attributes>        <clef number="1">          <sign>G</sign>          <line>2</line>        </clef>      </attributes>      <note>        <pitch>          <step>B</step>          <octave>4</octave>        </pitch>        <duration>6</duration>        <voice>1</voice>        <type>eighth</type>        <dot/>        <accidental>natural</accidental>        <stem>up</stem>        <staff>1</staff>        <beam number="1">begin</beam>      </note>      <note>        <pitch>          <step>A</step>          <octave>4</octave>        </pitch>        <duration>2</duration>        <voice>1</voice>        <type>16th</type>        <accidental>natural</accidental>        <stem>up</stem>        <staff>1</staff>        <beam number="1">end</beam>        <beam number="2">backward hook</beam>      </note>      <note>        <pitch>          <step>B</step>          <octave>3</octave>        </pitch>        <duration>8</duration>        <voice>1</voice>        <type>quarter</type>        <stem>up</stem>        <staff>1</staff>        <notations>          <slur number="1" type="stop"/>        </notations>      </note>      <note>        <chord/>        <pitch>          <step>D</step>          <octave>4</octave>        </pitch>        <duration>8</duration>        <voice>1</voice>        <type>quarter</type>        <stem>up</stem>        <staff>1</staff>      </note>      <note>        <chord/>        <pitch>          <step>G</step>          <octave>4</octave>        </pitch>        <duration>8</duration>        <voice>1</voice>        <type>quarter</type>        <stem>up</stem>        <staff>1</staff>      </note>      <backup>        <duration>32</duration>      </backup>      <forward>        <duration>8</duration>        <voice>2</voice>        <staff>1</staff>      </forward>      <forward>        <duration>8</duration>        <voice>2</voice>        <staff>1</staff>      </forward>      <note>        <pitch>          <step>C</step>          <octave>4</octave>        </pitch>        <duration>8</duration>        <voice>2</voice>        <type>quarter</type>        <stem>down</stem>        <staff>1</staff>      </note>      <note>        <chord/>        <pitch>          <step>D</step>          <octave>4</octave>        </pitch>        <duration>8</duration>        <voice>2</voice>        <type>quarter</type>        <stem>down</stem>        <staff>1</staff>      </note>      <note>        <chord/>        <pitch>          <step>F</step>          <alter>1</alter>          <octave>4</octave>        </pitch>        <duration>8</duration>        <voice>2</voice>        <type>quarter</type>        <accidental>sharp</accidental>        <stem>down</stem>        <staff>1</staff>      </note>      <forward>        <duration>8</duration>        <voice>2</voice>        <staff>1</staff>      </forward>      <backup>        <duration>32</duration>      </backup>      <note>        <pitch>          <step>D</step>          <octave>2</octave>        </pitch>        <duration>8</duration>        <voice>3</voice>        <type>quarter</type>        <stem>up</stem>        <staff>2</staff>      </note>      <note>        <chord/>        <pitch>          <step>A</step>          <octave>2</octave>        </pitch>        <duration>8</duration>        <voice>3</voice>        <type>quarter</type>        <accidental>natural</accidental>        <stem>up</stem>        <staff>2</staff>      </note>      <note>        <chord/>        <pitch>          <step>D</step>          <octave>3</octave>        </pitch>        <duration>8</duration>        <voice>3</voice>        <type>quarter</type>        <stem>up</stem>        <staff>2</staff>      </note>      <note>        <pitch>          <step>G</step>          <octave>1</octave>        </pitch>        <duration>8</duration>        <voice>3</voice>        <type>quarter</type>        <stem>up</stem>        <staff>2</staff>      </note>      <note>        <chord/>        <pitch>          <step>G</step>          <octave>2</octave>        </pitch>        <duration>8</duration>        <voice>3</voice>        <type>quarter</type>        <stem>up</stem>        <staff>2</staff>      </note>      <note>        <pitch>          <step>D</step>          <octave>1</octave>        </pitch>        <duration>8</duration>        <voice>3</voice>        <type>quarter</type>        <stem>up</stem>        <staff>2</staff>      </note>      <note>        <chord/>        <pitch>          <step>D</step>          <octave>2</octave>        </pitch>        <duration>8</duration>        <voice>3</voice>        <type>quarter</type>        <stem>up</stem>        <staff>2</staff>      </note>      <note>        <pitch>          <step>G</step>          <octave>1</octave>        </pitch>        <duration>8</duration>        <voice>3</voice>        <type>quarter</type>        <stem>up</stem>        <staff>2</staff>      </note>      <note>        <chord/>        <pitch>          <step>G</step>          <octave>2</octave>        </pitch>        <duration>8</duration>        <voice>3</voice>        <type>quarter</type>        <stem>up</stem>        <staff>2</staff>      </note>    </measure>    <!--=======================================================-->    <measure number="5">      <print new-system="yes"/>      <note>        <pitch>          <step>E</step>          <alter>-1</alter>          <octave>4</octave>        </pitch>        <duration>8</duration>        <voice>1</voice>        <type>quarter</type>        <stem>up</stem>        <staff>1</staff>        <notations>          <slur number="1" type="start"/>        </notations>      </note>      <note>        <chord/>        <pitch>          <step>G</step>          <octave>4</octave>        </pitch>        <duration>8</duration>        <voice>1</voice>        <type>quarter</type>        <stem>up</stem>        <staff>1</staff>      </note>      <note>        <chord/>        <pitch>          <step>E</step>          <alter>-1</alter>          <octave>5</octave>        </pitch>        <duration>8</duration>        <voice>1</voice>        <type>quarter</type>        <stem>up</stem>        <staff>1</staff>      </note>      <note>        <pitch>          <step>E</step>          <alter>-1</alter>          <octave>4</octave>        </pitch>        <duration>8</duration>        <voice>1</voice>        <type>quarter</type>        <stem>up</stem>        <staff>1</staff>      </note>      <note>        <chord/>        <pitch>          <step>A</step>          <alter>-1</alter>          <octave>4</octave>        </pitch>        <duration>8</duration>        <voice>1</voice>        <type>quarter</type>        <stem>up</stem>        <staff>1</staff>      </note>      <note>        <chord/>        <pitch>          <step>E</step>          <alter>-1</alter>          <octave>5</octave>        </pitch>        <duration>8</duration>        <voice>1</voice>        <type>quarter</type>        <stem>up</stem>        <staff>1</staff>      </note>      <note>        <pitch>          <step>D</step>          <octave>4</octave>        </pitch>        <duration>8</duration>        <voice>1</voice>        <type>quarter</type>        <stem>up</stem>        <staff>1</staff>      </note>      <note>        <chord/>        <pitch>          <step>D</step>          <octave>5</octave>        </pitch>        <duration>8</duration>        <voice>1</voice>        <type>quarter</type>        <stem>up</stem>        <staff>1</staff>      </note>      <note>        <pitch>          <step>D</step>          <octave>4</octave>        </pitch>        <duration>8</duration>        <voice>1</voice>        <type>quarter</type>        <stem>up</stem>        <staff>1</staff>      </note>      <note>        <chord/>        <pitch>          <step>G</step>          <octave>4</octave>        </pitch>        <duration>8</duration>        <voice>1</voice>        <type>quarter</type>        <stem>up</stem>        <staff>1</staff>      </note>      <note>        <chord/>        <pitch>          <step>D</step>          <octave>5</octave>        </pitch>        <duration>8</duration>        <voice>1</voice>        <type>quarter</type>        <stem>up</stem>        <staff>1</staff>      </note>      <backup>        <duration>32</duration>      </backup>      <forward>        <duration>8</duration>        <voice>2</voice>        <staff>1</staff>      </forward>      <forward>        <duration>8</duration>        <voice>2</voice>        <staff>1</staff>      </forward>      <note>        <pitch>          <step>A</step>          <alter>-1</alter>          <octave>4</octave>        </pitch>        <duration>6</duration>        <voice>2</voice>        <type>eighth</type>        <dot/>        <stem>down</stem>        <staff>1</staff>        <beam number="1">begin</beam>      </note>      <note>        <pitch>          <step>F</step>          <alter>1</alter>          <octave>4</octave>        </pitch>        <duration>2</duration>        <voice>2</voice>        <type>16th</type>        <accidental>sharp</accidental>        <stem>down</stem>        <staff>1</staff>        <beam number="1">end</beam>        <beam number="2">backward hook</beam>      </note>      <forward>        <duration>8</duration>        <voice>2</voice>        <staff>1</staff>      </forward>      <backup>        <duration>32</duration>      </backup>      <note>        <pitch>          <step>C</step>          <octave>2</octave>        </pitch>        <duration>8</duration>        <voice>3</voice>        <type>quarter</type>        <stem>up</stem>        <staff>2</staff>        <notations>          <slur number="2" type="start"/>        </notations>      </note>      <note>        <chord/>        <pitch>          <step>C</step>          <octave>3</octave>        </pitch>        <duration>8</duration>        <voice>3</voice>        <type>quarter</type>        <stem>up</stem>        <staff>2</staff>      </note>      <note>        <pitch>          <step>C</step>          <octave>3</octave>        </pitch>        <duration>8</duration>        <voice>3</voice>        <type>quarter</type>        <stem>down</stem>        <staff>2</staff>      </note>      <note>        <chord/>        <pitch>          <step>C</step>          <octave>4</octave>        </pitch>        <duration>8</duration>        <voice>3</voice>        <type>quarter</type>        <stem>down</stem>        <staff>2</staff>      </note>      <note>        <pitch>          <step>B</step>          <octave>2</octave>        </pitch>        <duration>8</duration>        <voice>3</voice>        <type>quarter</type>        <accidental>natural</accidental>        <stem>down</stem>        <staff>2</staff>      </note>      <note>        <chord/>        <pitch>          <step>B</step>          <octave>3</octave>        </pitch>        <duration>8</duration>        <voice>3</voice>        <type>quarter</type>        <accidental>natural</accidental>        <stem>down</stem>        <staff>2</staff>      </note>      <note>        <pitch>          <step>B</step>          <alter>-1</alter>          <octave>2</octave>        </pitch>        <duration>8</duration>        <voice>3</voice>        <type>quarter</type>        <accidental>flat</accidental>        <stem>down</stem>        <staff>2</staff>      </note>      <note>        <chord/>        <pitch>          <step>B</step>          <alter>-1</alter>          <octave>3</octave>        </pitch>        <duration>8</duration>        <voice>3</voice>        <type>quarter</type>        <accidental>flat</accidental>        <stem>down</stem>        <staff>2</staff>      </note>    </measure>    <!--=======================================================-->    <measure number="6">      <note>        <pitch>          <step>C</step>          <octave>4</octave>        </pitch>        <duration>8</duration>        <voice>1</voice>        <type>quarter</type>        <stem>up</stem>        <staff>1</staff>      </note>      <note>        <chord/>        <pitch>          <step>G</step>          <octave>4</octave>        </pitch>        <duration>8</duration>        <voice>1</voice>        <type>quarter</type>        <stem>up</stem>        <staff>1</staff>      </note>      <note>        <chord/>        <pitch>          <step>C</step>          <octave>5</octave>        </pitch>        <duration>8</duration>        <voice>1</voice>        <type>quarter</type>        <stem>up</stem>        <staff>1</staff>      </note>      <note>        <pitch>          <step>C</step>          <octave>4</octave>        </pitch>        <duration>8</duration>        <voice>1</voice>        <type>quarter</type>        <stem>up</stem>        <staff>1</staff>      </note>      <note>        <chord/>        <pitch>          <step>D</step>          <octave>4</octave>        </pitch>        <duration>8</duration>        <voice>1</voice>        <type>quarter</type>        <stem>up</stem>        <staff>1</staff>      </note>      <note>        <chord/>        <pitch>          <step>F</step>          <alter>1</alter>          <octave>4</octave>        </pitch>        <duration>8</duration>        <voice>1</voice>        <type>quarter</type>        <accidental>sharp</accidental>        <stem>up</stem>        <staff>1</staff>      </note>      <note>        <chord/>        <pitch>          <step>D</step>          <octave>5</octave>        </pitch>        <duration>8</duration>        <voice>1</voice>        <type>quarter</type>        <stem>up</stem>        <staff>1</staff>      </note>      <note>        <pitch>          <step>D</step>          <octave>4</octave>        </pitch>        <duration>6</duration>        <voice>1</voice>        <type>eighth</type>        <dot/>        <stem>up</stem>        <staff>1</staff>        <beam number="1">begin</beam>      </note>      <note>        <chord/>        <pitch>          <step>G</step>          <octave>4</octave>        </pitch>        <duration>6</duration>        <voice>1</voice>        <type>eighth</type>        <dot/>        <stem>up</stem>        <staff>1</staff>      </note>      <note>        <chord/>        <pitch>          <step>B</step>          <octave>4</octave>        </pitch>        <duration>6</duration>        <voice>1</voice>        <type>eighth</type>        <dot/>        <accidental>natural</accidental>        <stem>up</stem>        <staff>1</staff>      </note>      <note>        <pitch>          <step>C</step>          <octave>4</octave>        </pitch>        <duration>2</duration>        <voice>1</voice>        <type>16th</type>        <stem>up</stem>        <staff>1</staff>        <beam number="1">end</beam>        <beam number="2">backward hook</beam>      </note>      <note>        <chord/>        <pitch>          <step>A</step>          <octave>4</octave>        </pitch>        <duration>2</duration>        <voice>1</voice>        <type>16th</type>        <accidental>natural</accidental>        <stem>up</stem>        <staff>1</staff>      </note>      <note>        <pitch>          <step>B</step>          <octave>3</octave>        </pitch>        <duration>8</duration>        <voice>1</voice>        <type>quarter</type>        <accidental>natural</accidental>        <stem>up</stem>        <staff>1</staff>      </note>      <note>        <chord/>        <pitch>          <step>D</step>          <octave>4</octave>        </pitch>        <duration>8</duration>        <voice>1</voice>        <type>quarter</type>        <stem>up</stem>        <staff>1</staff>      </note>      <note>        <chord/>        <pitch>          <step>G</step>          <octave>4</octave>        </pitch>        <duration>8</duration>        <voice>1</voice>        <type>quarter</type>        <stem>up</stem>        <staff>1</staff>      </note>      <backup>        <duration>32</duration>      </backup>      <note>        <pitch>          <step>A</step>          <octave>2</octave>        </pitch>        <duration>8</duration>        <voice>3</voice>        <type>quarter</type>        <accidental>natural</accidental>        <stem>down</stem>        <staff>2</staff>      </note>      <note>        <chord/>        <pitch>          <step>A</step>          <octave>3</octave>        </pitch>        <duration>8</duration>        <voice>3</voice>        <type>quarter</type>        <accidental>natural</accidental>        <stem>down</stem>        <staff>2</staff>      </note>      <note>        <pitch>          <step>A</step>          <alter>-1</alter>          <octave>2</octave>        </pitch>        <duration>8</duration>        <voice>3</voice>        <type>quarter</type>        <accidental>flat</accidental>        <stem>down</stem>        <staff>2</staff>      </note>      <note>        <chord/>        <pitch>          <step>A</step>          <alter>-1</alter>          <octave>3</octave>        </pitch>        <duration>8</duration>        <voice>3</voice>        <type>quarter</type>        <accidental>flat</accidental>        <stem>down</stem>        <staff>2</staff>      </note>      <note>        <pitch>          <step>G</step>          <octave>2</octave>        </pitch>        <duration>8</duration>        <voice>3</voice>        <type>quarter</type>        <stem>up</stem>        <staff>2</staff>      </note>      <note>        <chord/>        <pitch>          <step>G</step>          <octave>3</octave>        </pitch>        <duration>8</duration>        <voice>3</voice>        <type>quarter</type>        <stem>up</stem>        <staff>2</staff>      </note>      <note>        <pitch>          <step>F</step>          <octave>2</octave>        </pitch>        <duration>8</duration>        <voice>3</voice>        <type>quarter</type>        <stem>up</stem>        <staff>2</staff>      </note>      <note>        <chord/>        <pitch>          <step>F</step>          <octave>3</octave>        </pitch>        <duration>8</duration>        <voice>3</voice>        <type>quarter</type>        <stem>up</stem>        <staff>2</staff>      </note>    </measure>    <!--=======================================================-->    <measure number="7">      <note>        <pitch>          <step>C</step>          <octave>4</octave>        </pitch>        <duration>8</duration>        <voice>1</voice>        <type>quarter</type>        <stem>up</stem>        <staff>1</staff>      </note>      <note>        <chord/>        <pitch>          <step>G</step>          <octave>4</octave>        </pitch>        <duration>8</duration>        <voice>1</voice>        <type>quarter</type>        <stem>up</stem>        <staff>1</staff>      </note>      <note>        <chord/>        <pitch>          <step>C</step>          <octave>5</octave>        </pitch>        <duration>8</duration>        <voice>1</voice>        <type>quarter</type>        <stem>up</stem>        <staff>1</staff>      </note>      <note>        <pitch>          <step>A</step>          <alter>-1</alter>          <octave>3</octave>        </pitch>        <duration>8</duration>        <voice>1</voice>        <type>quarter</type>        <stem>up</stem>        <staff>1</staff>      </note>      <note>        <chord/>        <pitch>          <step>C</step>          <octave>4</octave>        </pitch>        <duration>8</duration>        <voice>1</voice>        <type>quarter</type>        <stem>up</stem>        <staff>1</staff>      </note>      <note>        <chord/>        <pitch>          <step>A</step>          <alter>-1</alter>          <octave>4</octave>        </pitch>        <duration>8</duration>        <voice>1</voice>        <type>quarter</type>        <stem>up</stem>        <staff>1</staff>      </note>      <note>        <pitch>          <step>G</step>          <octave>4</octave>        </pitch>        <duration>6</duration>        <voice>1</voice>        <type>eighth</type>        <dot/>        <stem>up</stem>        <staff>1</staff>        <beam number="1">begin</beam>      </note>      <note>        <pitch>          <step>F</step>          <octave>4</octave>        </pitch>        <duration>2</duration>        <voice>1</voice>        <type>16th</type>        <stem>up</stem>        <staff>1</staff>        <beam number="1">end</beam>        <beam number="2">backward hook</beam>      </note>      <direction placement="above">        <direction-type>          <words default-y="29" font-family="Times New Roman" font-size="11.6" font-style="italic">riten. </words>        </direction-type>        <offset>-1</offset>        <staff>1</staff>      </direction>      <note>        <pitch>          <step>G</step>          <octave>3</octave>        </pitch>        <duration>8</duration>        <voice>1</voice>        <type>quarter</type>        <stem>up</stem>        <staff>1</staff>      </note>      <note>        <chord/>        <pitch>          <step>C</step>          <octave>4</octave>        </pitch>        <duration>8</duration>        <voice>1</voice>        <type>quarter</type>        <stem>up</stem>        <staff>1</staff>      </note>      <note>        <chord/>        <pitch>          <step>E</step>          <alter>-1</alter>          <octave>4</octave>        </pitch>        <duration>8</duration>        <voice>1</voice>        <type>quarter</type>        <stem>up</stem>        <staff>1</staff>      </note>      <backup>        <duration>32</duration>      </backup>      <forward>        <duration>8</duration>        <voice>2</voice>        <staff>1</staff>      </forward>      <forward>        <duration>8</duration>        <voice>2</voice>        <staff>1</staff>      </forward>      <note>        <pitch>          <step>G</step>          <octave>3</octave>        </pitch>        <duration>8</duration>        <voice>2</voice>        <type>quarter</type>        <stem>down</stem>        <staff>1</staff>      </note>      <note>        <chord/>        <pitch>          <step>D</step>          <octave>4</octave>        </pitch>        <duration>8</duration>        <voice>2</voice>        <type>quarter</type>        <stem>down</stem>        <staff>1</staff>      </note>      <forward>        <duration>8</duration>        <voice>2</voice>        <staff>1</staff>      </forward>      <backup>        <duration>32</duration>      </backup>      <note>        <pitch>          <step>E</step>          <alter>-1</alter>          <octave>2</octave>        </pitch>        <duration>8</duration>        <voice>3</voice>        <type>quarter</type>        <stem>up</stem>        <staff>2</staff>      </note>      <note>        <chord/>        <pitch>          <step>E</step>          <alter>-1</alter>          <octave>3</octave>        </pitch>        <duration>8</duration>        <voice>3</voice>        <type>quarter</type>        <stem>up</stem>        <staff>2</staff>      </note>      <note>        <pitch>          <step>F</step>          <octave>2</octave>        </pitch>        <duration>8</duration>        <voice>3</voice>        <type>quarter</type>        <stem>up</stem>        <staff>2</staff>      </note>      <note>        <chord/>        <pitch>          <step>F</step>          <octave>3</octave>        </pitch>        <duration>8</duration>        <voice>3</voice>        <type>quarter</type>        <stem>up</stem>        <staff>2</staff>      </note>      <note>        <pitch>          <step>B</step>          <octave>1</octave>        </pitch>        <duration>8</duration>        <voice>3</voice>        <type>quarter</type>        <accidental>natural</accidental>        <stem>up</stem>        <staff>2</staff>      </note>      <note>        <chord/>        <pitch>          <step>B</step>          <octave>2</octave>        </pitch>        <duration>8</duration>        <voice>3</voice>        <type>quarter</type>        <accidental>natural</accidental>        <stem>up</stem>        <staff>2</staff>      </note>      <direction placement="above">        <direction-type>          <words default-y="29" font-family="Times New Roman" font-size="11.6" font-style="italic">riten. </words>        </direction-type>        <offset>-1</offset>        <staff>2</staff>      </direction>      <note>        <pitch>          <step>C</step>          <octave>2</octave>        </pitch>        <duration>8</duration>        <voice>3</voice>        <type>quarter</type>        <stem>up</stem>        <staff>2</staff>      </note>      <note>        <chord/>        <pitch>          <step>C</step>          <octave>3</octave>        </pitch>        <duration>8</duration>        <voice>3</voice>        <type>quarter</type>        <stem>up</stem>        <staff>2</staff>      </note>    </measure>    <!--=======================================================-->    <measure number="8">      <attributes>        <clef number="1">          <sign>F</sign>          <line>4</line>        </clef>      </attributes>      <note>        <pitch>          <step>E</step>          <alter>-1</alter>          <octave>3</octave>        </pitch>        <duration>8</duration>        <voice>1</voice>        <type>quarter</type>        <stem>down</stem>        <staff>1</staff>      </note>      <note>        <chord/>        <pitch>          <step>A</step>          <alter>-1</alter>          <octave>3</octave>        </pitch>        <duration>8</duration>        <voice>1</voice>        <type>quarter</type>        <stem>down</stem>        <staff>1</staff>      </note>      <note>        <chord/>        <pitch>          <step>C</step>          <octave>4</octave>        </pitch>        <duration>8</duration>        <voice>1</voice>        <type>quarter</type>        <stem>down</stem>        <staff>1</staff>      </note>      <note>        <chord/>        <pitch>          <step>E</step>          <alter>-1</alter>          <octave>4</octave>        </pitch>        <duration>8</duration>        <voice>1</voice>        <type>quarter</type>        <stem>down</stem>        <staff>1</staff>      </note>      <note>        <pitch>          <step>F</step>          <octave>3</octave>        </pitch>        <duration>8</duration>        <voice>1</voice>        <type>quarter</type>        <stem>down</stem>        <staff>1</staff>      </note>      <note>        <chord/>        <pitch>          <step>A</step>          <alter>-1</alter>          <octave>3</octave>        </pitch>        <duration>8</duration>        <voice>1</voice>        <type>quarter</type>        <stem>down</stem>        <staff>1</staff>      </note>      <note>        <chord/>        <pitch>          <step>D</step>          <alter>-1</alter>          <octave>4</octave>        </pitch>        <duration>8</duration>        <voice>1</voice>        <type>quarter</type>        <accidental>flat</accidental>        <stem>down</stem>        <staff>1</staff>      </note>      <note>        <chord/>        <pitch>          <step>F</step>          <octave>4</octave>        </pitch>        <duration>8</duration>        <voice>1</voice>        <type>quarter</type>        <stem>down</stem>        <staff>1</staff>      </note>      <note>        <pitch>          <step>E</step>          <alter>-1</alter>          <octave>4</octave>        </pitch>        <duration>6</duration>        <voice>1</voice>        <type>eighth</type>        <dot/>        <stem>up</stem>        <staff>1</staff>        <beam number="1">begin</beam>      </note>      <note>        <pitch>          <step>D</step>          <octave>4</octave>        </pitch>        <duration>2</duration>        <voice>1</voice>        <type>16th</type>        <accidental>natural</accidental>        <stem>up</stem>        <staff>1</staff>        <beam number="1">end</beam>        <beam number="2">backward hook</beam>      </note>      <note>        <pitch>          <step>E</step>          <alter>-1</alter>          <octave>3</octave>        </pitch>        <duration>8</duration>        <voice>1</voice>        <type>quarter</type>        <stem>down</stem>        <staff>1</staff>        <notations>          <slur number="1" type="stop"/>        </notations>      </note>      <note>        <chord/>        <pitch>          <step>G</step>          <octave>3</octave>        </pitch>        <duration>8</duration>        <voice>1</voice>        <type>quarter</type>        <stem>down</stem>        <staff>1</staff>      </note>      <note>        <chord/>        <pitch>          <step>C</step>          <octave>4</octave>        </pitch>        <duration>8</duration>        <voice>1</voice>        <type>quarter</type>        <stem>down</stem>        <staff>1</staff>      </note>      <backup>        <duration>32</duration>      </backup>      <forward>        <duration>8</duration>        <voice>2</voice>        <staff>1</staff>      </forward>      <forward>        <duration>8</duration>        <voice>2</voice>        <staff>1</staff>      </forward>      <note>        <pitch>          <step>F</step>          <octave>3</octave>        </pitch>        <duration>8</duration>        <voice>2</voice>        <type>quarter</type>        <stem>down</stem>        <staff>1</staff>      </note>      <note>        <chord/>        <pitch>          <step>G</step>          <octave>3</octave>        </pitch>        <duration>8</duration>        <voice>2</voice>        <type>quarter</type>        <stem>down</stem>        <staff>1</staff>      </note>      <note>        <chord/>        <pitch>          <step>B</step>          <octave>3</octave>        </pitch>        <duration>8</duration>        <voice>2</voice>        <type>quarter</type>        <accidental>natural</accidental>        <stem>down</stem>        <staff>1</staff>      </note>      <forward>        <duration>8</duration>        <voice>2</voice>        <staff>1</staff>      </forward>      <backup>        <duration>32</duration>      </backup>      <note>        <pitch>          <step>A</step>          <alter>-1</alter>          <octave>1</octave>        </pitch>        <duration>8</duration>        <voice>3</voice>        <type>quarter</type>        <stem>up</stem>        <staff>2</staff>      </note>      <note>        <chord/>        <pitch>          <step>A</step>          <alter>-1</alter>          <octave>2</octave>        </pitch>        <duration>8</duration>        <voice>3</voice>        <type>quarter</type>        <stem>up</stem>        <staff>2</staff>      </note>      <note>        <pitch>          <step>D</step>          <alter>-1</alter>          <octave>1</octave>        </pitch>        <duration>8</duration>        <voice>3</voice>        <type>quarter</type>        <accidental>flat</accidental>        <stem>up</stem>        <staff>2</staff>      </note>      <note>        <chord/>        <pitch>          <step>D</step>          <alter>-1</alter>          <octave>2</octave>        </pitch>        <duration>8</duration>        <voice>3</voice>        <type>quarter</type>        <accidental>flat</accidental>        <stem>up</stem>        <staff>2</staff>      </note>      <note>        <pitch>          <step>G</step>          <octave>1</octave>        </pitch>        <duration>8</duration>        <voice>3</voice>        <type>quarter</type>        <stem>up</stem>        <staff>2</staff>      </note>      <note>        <chord/>        <pitch>          <step>G</step>          <octave>2</octave>        </pitch>        <duration>8</duration>        <voice>3</voice>        <type>quarter</type>        <stem>up</stem>        <staff>2</staff>      </note>      <note>        <pitch>          <step>C</step>          <octave>1</octave>        </pitch>        <duration>8</duration>        <voice>3</voice>        <type>quarter</type>        <stem>up</stem>        <staff>2</staff>        <notations>          <slur number="2" type="stop"/>        </notations>      </note>      <note>        <chord/>        <pitch>          <step>C</step>          <octave>2</octave>        </pitch>        <duration>8</duration>        <voice>3</voice>        <type>quarter</type>        <stem>up</stem>        <staff>2</staff>      </note>    </measure>    <!--=======================================================-->    <measure number="9">      <print new-system="yes"/>      <attributes>        <clef number="1">          <sign>G</sign>          <line>2</line>        </clef>      </attributes>      <direction placement="above">        <direction-type>          <words default-y="20" font-family="Times New Roman" font-size="10.8" font-style="italic" relative-x="-43">a tempo</words>        </direction-type>        <staff>1</staff>      </direction>      <direction placement="below">        <direction-type>          <dynamics default-y="-87" relative-x="-17">            <pp/>          </dynamics>        </direction-type>        <staff>1</staff>        <sound dynamics="40"/>      </direction>      <note>        <pitch>          <step>E</step>          <alter>-1</alter>          <octave>4</octave>        </pitch>        <duration>8</duration>        <voice>1</voice>        <type>quarter</type>        <stem>up</stem>        <staff>1</staff>        <notations>          <slur number="1" type="start"/>        </notations>      </note>      <note>        <chord/>        <pitch>          <step>G</step>          <octave>4</octave>        </pitch>        <duration>8</duration>        <voice>1</voice>        <type>quarter</type>        <stem>up</stem>        <staff>1</staff>      </note>      <note>        <chord/>        <pitch>          <step>E</step>          <alter>-1</alter>          <octave>5</octave>        </pitch>        <duration>8</duration>        <voice>1</voice>        <type>quarter</type>        <stem>up</stem>        <staff>1</staff>      </note>      <note>        <pitch>          <step>E</step>          <alter>-1</alter>          <octave>4</octave>        </pitch>        <duration>8</duration>        <voice>1</voice>        <type>quarter</type>        <stem>up</stem>        <staff>1</staff>      </note>      <note>        <chord/>        <pitch>          <step>A</step>          <alter>-1</alter>          <octave>4</octave>        </pitch>        <duration>8</duration>        <voice>1</voice>        <type>quarter</type>        <stem>up</stem>        <staff>1</staff>      </note>      <note>        <chord/>        <pitch>          <step>E</step>          <alter>-1</alter>          <octave>5</octave>        </pitch>        <duration>8</duration>        <voice>1</voice>        <type>quarter</type>        <stem>up</stem>        <staff>1</staff>      </note>      <note>        <pitch>          <step>D</step>          <octave>4</octave>        </pitch>        <duration>8</duration>        <voice>1</voice>        <type>quarter</type>        <stem>up</stem>        <staff>1</staff>      </note>      <note>        <chord/>        <pitch>          <step>D</step>          <octave>5</octave>        </pitch>        <duration>8</duration>        <voice>1</voice>        <type>quarter</type>        <stem>up</stem>        <staff>1</staff>      </note>      <note>        <pitch>          <step>D</step>          <octave>4</octave>        </pitch>        <duration>8</duration>        <voice>1</voice>        <type>quarter</type>        <stem>up</stem>        <staff>1</staff>      </note>      <note>        <chord/>        <pitch>          <step>G</step>          <octave>4</octave>        </pitch>        <duration>8</duration>        <voice>1</voice>        <type>quarter</type>        <stem>up</stem>        <staff>1</staff>      </note>      <note>        <chord/>        <pitch>          <step>D</step>          <octave>5</octave>        </pitch>        <duration>8</duration>        <voice>1</voice>        <type>quarter</type>        <stem>up</stem>        <staff>1</staff>      </note>      <backup>        <duration>32</duration>      </backup>      <forward>        <duration>8</duration>        <voice>2</voice>        <staff>1</staff>      </forward>      <forward>        <duration>8</duration>        <voice>2</voice>        <staff>1</staff>      </forward>      <note>        <pitch>          <step>A</step>          <alter>-1</alter>          <octave>4</octave>        </pitch>        <duration>6</duration>        <voice>2</voice>        <type>eighth</type>        <dot/>        <stem>down</stem>        <staff>1</staff>        <beam number="1">begin</beam>      </note>      <note>        <pitch>          <step>F</step>          <alter>1</alter>          <octave>4</octave>        </pitch>        <duration>2</duration>        <voice>2</voice>        <type>16th</type>        <accidental>sharp</accidental>        <stem>down</stem>        <staff>1</staff>        <beam number="1">end</beam>        <beam number="2">backward hook</beam>      </note>      <forward>        <duration>8</duration>        <voice>2</voice>        <staff>1</staff>      </forward>      <backup>        <duration>32</duration>      </backup>      <direction placement="above">        <direction-type>          <words default-y="20" font-family="Times New Roman" font-size="10.8" font-style="italic" relative-x="-43">a tempo</words>        </direction-type>        <staff>2</staff>      </direction>      <direction placement="below">        <direction-type>          <dynamics default-y="-87" relative-x="-17">            <pp/>          </dynamics>        </direction-type>        <staff>2</staff>        <sound dynamics="40"/>      </direction>      <note>        <pitch>          <step>C</step>          <octave>2</octave>        </pitch>        <duration>8</duration>        <voice>3</voice>        <type>quarter</type>        <stem>up</stem>        <staff>2</staff>        <notations>          <slur number="2" type="start"/>        </notations>      </note>      <note>        <chord/>        <pitch>          <step>C</step>          <octave>3</octave>        </pitch>        <duration>8</duration>        <voice>3</voice>        <type>quarter</type>        <stem>up</stem>        <staff>2</staff>      </note>      <note>        <pitch>          <step>C</step>          <octave>3</octave>        </pitch>        <duration>8</duration>        <voice>3</voice>        <type>quarter</type>        <stem>down</stem>        <staff>2</staff>      </note>      <note>        <chord/>        <pitch>          <step>C</step>          <octave>4</octave>        </pitch>        <duration>8</duration>        <voice>3</voice>        <type>quarter</type>        <stem>down</stem>        <staff>2</staff>      </note>      <note>        <pitch>          <step>B</step>          <octave>2</octave>        </pitch>        <duration>8</duration>        <voice>3</voice>        <type>quarter</type>        <accidental>natural</accidental>        <stem>down</stem>        <staff>2</staff>      </note>      <note>        <chord/>        <pitch>          <step>B</step>          <octave>3</octave>        </pitch>        <duration>8</duration>        <voice>3</voice>        <type>quarter</type>        <accidental>natural</accidental>        <stem>down</stem>        <staff>2</staff>      </note>      <note>        <pitch>          <step>B</step>          <alter>-1</alter>          <octave>2</octave>        </pitch>        <duration>8</duration>        <voice>3</voice>        <type>quarter</type>        <accidental>flat</accidental>        <stem>down</stem>        <staff>2</staff>      </note>      <note>        <chord/>        <pitch>          <step>B</step>          <alter>-1</alter>          <octave>3</octave>        </pitch>        <duration>8</duration>        <voice>3</voice>        <type>quarter</type>        <accidental>flat</accidental>        <stem>down</stem>        <staff>2</staff>      </note>    </measure>    <!--=======================================================-->    <measure number="10">      <note>        <pitch>          <step>C</step>          <octave>4</octave>        </pitch>        <duration>8</duration>        <voice>1</voice>        <type>quarter</type>        <stem>up</stem>        <staff>1</staff>      </note>      <note>        <chord/>        <pitch>          <step>G</step>          <octave>4</octave>        </pitch>        <duration>8</duration>        <voice>1</voice>        <type>quarter</type>        <stem>up</stem>        <staff>1</staff>      </note>      <note>        <chord/>        <pitch>          <step>C</step>          <octave>5</octave>        </pitch>        <duration>8</duration>        <voice>1</voice>        <type>quarter</type>        <stem>up</stem>        <staff>1</staff>      </note>      <note>        <pitch>          <step>C</step>          <octave>4</octave>        </pitch>        <duration>8</duration>        <voice>1</voice>        <type>quarter</type>        <stem>up</stem>        <staff>1</staff>      </note>      <note>        <chord/>        <pitch>          <step>D</step>          <octave>4</octave>        </pitch>        <duration>8</duration>        <voice>1</voice>        <type>quarter</type>        <stem>up</stem>        <staff>1</staff>      </note>      <note>        <chord/>        <pitch>          <step>F</step>          <alter>1</alter>          <octave>4</octave>        </pitch>        <duration>8</duration>        <voice>1</voice>        <type>quarter</type>        <accidental>sharp</accidental>        <stem>up</stem>        <staff>1</staff>      </note>      <note>        <chord/>        <pitch>          <step>D</step>          <octave>5</octave>        </pitch>        <duration>8</duration>        <voice>1</voice>        <type>quarter</type>        <stem>up</stem>        <staff>1</staff>      </note>      <note>        <pitch>          <step>D</step>          <octave>4</octave>        </pitch>        <duration>6</duration>        <voice>1</voice>        <type>eighth</type>        <dot/>        <stem>up</stem>        <staff>1</staff>        <beam number="1">begin</beam>      </note>      <note>        <chord/>        <pitch>          <step>G</step>          <octave>4</octave>        </pitch>        <duration>6</duration>        <voice>1</voice>        <type>eighth</type>        <dot/>        <stem>up</stem>        <staff>1</staff>      </note>      <note>        <chord/>        <pitch>          <step>B</step>          <octave>4</octave>        </pitch>        <duration>6</duration>        <voice>1</voice>        <type>eighth</type>        <dot/>        <accidental>natural</accidental>        <stem>up</stem>        <staff>1</staff>      </note>      <note>        <pitch>          <step>C</step>          <octave>4</octave>        </pitch>        <duration>2</duration>        <voice>1</voice>        <type>16th</type>        <stem>up</stem>        <staff>1</staff>        <beam number="1">end</beam>        <beam number="2">backward hook</beam>      </note>      <note>        <chord/>        <pitch>          <step>A</step>          <octave>4</octave>        </pitch>        <duration>2</duration>        <voice>1</voice>        <type>16th</type>        <accidental>natural</accidental>        <stem>up</stem>        <staff>1</staff>      </note>      <note>        <pitch>          <step>B</step>          <octave>3</octave>        </pitch>        <duration>8</duration>        <voice>1</voice>        <type>quarter</type>        <accidental>natural</accidental>        <stem>up</stem>        <staff>1</staff>      </note>      <note>        <chord/>        <pitch>          <step>D</step>          <octave>4</octave>        </pitch>        <duration>8</duration>        <voice>1</voice>        <type>quarter</type>        <stem>up</stem>        <staff>1</staff>      </note>      <note>        <chord/>        <pitch>          <step>G</step>          <octave>4</octave>        </pitch>        <duration>8</duration>        <voice>1</voice>        <type>quarter</type>        <stem>up</stem>        <staff>1</staff>      </note>      <backup>        <duration>32</duration>      </backup>      <note>        <pitch>          <step>A</step>          <octave>2</octave>        </pitch>        <duration>8</duration>        <voice>3</voice>        <type>quarter</type>        <accidental>natural</accidental>        <stem>down</stem>        <staff>2</staff>      </note>      <note>        <chord/>        <pitch>          <step>A</step>          <octave>3</octave>        </pitch>        <duration>8</duration>        <voice>3</voice>        <type>quarter</type>        <accidental>natural</accidental>        <stem>down</stem>        <staff>2</staff>      </note>      <note>        <pitch>          <step>A</step>          <alter>-1</alter>          <octave>2</octave>        </pitch>        <duration>8</duration>        <voice>3</voice>        <type>quarter</type>        <accidental>flat</accidental>        <stem>down</stem>        <staff>2</staff>      </note>      <note>        <chord/>        <pitch>          <step>A</step>          <alter>-1</alter>          <octave>3</octave>        </pitch>        <duration>8</duration>        <voice>3</voice>        <type>quarter</type>        <accidental>flat</accidental>        <stem>down</stem>        <staff>2</staff>      </note>      <note>        <pitch>          <step>G</step>          <octave>2</octave>        </pitch>        <duration>8</duration>        <voice>3</voice>        <type>quarter</type>        <stem>up</stem>        <staff>2</staff>      </note>      <note>        <chord/>        <pitch>          <step>G</step>          <octave>3</octave>        </pitch>        <duration>8</duration>        <voice>3</voice>        <type>quarter</type>        <stem>up</stem>        <staff>2</staff>      </note>      <note>        <pitch>          <step>F</step>          <octave>2</octave>        </pitch>        <duration>8</duration>        <voice>3</voice>        <type>quarter</type>        <stem>up</stem>        <staff>2</staff>      </note>      <note>        <chord/>        <pitch>          <step>F</step>          <octave>3</octave>        </pitch>        <duration>8</duration>        <voice>3</voice>        <type>quarter</type>        <stem>up</stem>        <staff>2</staff>      </note>    </measure>    <!--=======================================================-->    <measure number="11">      <note>        <pitch>          <step>C</step>          <octave>4</octave>        </pitch>        <duration>8</duration>        <voice>1</voice>        <type>quarter</type>        <stem>up</stem>        <staff>1</staff>      </note>      <note>        <chord/>        <pitch>          <step>G</step>          <octave>4</octave>        </pitch>        <duration>8</duration>        <voice>1</voice>        <type>quarter</type>        <stem>up</stem>        <staff>1</staff>      </note>      <note>        <chord/>        <pitch>          <step>C</step>          <octave>5</octave>        </pitch>        <duration>8</duration>        <voice>1</voice>        <type>quarter</type>        <stem>up</stem>        <staff>1</staff>      </note>      <note>        <pitch>          <step>A</step>          <alter>-1</alter>          <octave>3</octave>        </pitch>        <duration>8</duration>        <voice>1</voice>        <type>quarter</type>        <stem>up</stem>        <staff>1</staff>      </note>      <note>        <chord/>        <pitch>          <step>C</step>          <octave>4</octave>        </pitch>        <duration>8</duration>        <voice>1</voice>        <type>quarter</type>        <stem>up</stem>        <staff>1</staff>      </note>      <note>        <chord/>        <pitch>          <step>A</step>          <alter>-1</alter>          <octave>4</octave>        </pitch>        <duration>8</duration>        <voice>1</voice>        <type>quarter</type>        <stem>up</stem>        <staff>1</staff>      </note>      <note>        <pitch>          <step>G</step>          <octave>4</octave>        </pitch>        <duration>6</duration>        <voice>1</voice>        <type>eighth</type>        <dot/>        <stem>up</stem>        <staff>1</staff>        <beam number="1">begin</beam>      </note>      <note>        <pitch>          <step>F</step>          <octave>4</octave>        </pitch>        <duration>2</duration>        <voice>1</voice>        <type>16th</type>        <stem>up</stem>        <staff>1</staff>        <beam number="1">end</beam>        <beam number="2">backward hook</beam>      </note>      <direction placement="above">        <direction-type>          <words default-y="29" font-family="Times New Roman" font-size="11.6" font-style="italic">riten. </words>        </direction-type>        <offset>-1</offset>        <staff>1</staff>      </direction>      <direction placement="below">        <direction-type>          <words default-y="-85" font-family="Times New Roman" font-size="10.8" font-style="italic">cresc.</words>        </direction-type>        <offset>-1</offset>        <staff>1</staff>      </direction>      <note>        <pitch>          <step>G</step>          <octave>3</octave>        </pitch>        <duration>8</duration>        <voice>1</voice>        <type>quarter</type>        <stem>up</stem>        <staff>1</staff>      </note>      <note>        <chord/>        <pitch>          <step>C</step>          <octave>4</octave>        </pitch>        <duration>8</duration>        <voice>1</voice>        <type>quarter</type>        <stem>up</stem>        <staff>1</staff>      </note>      <note>        <chord/>        <pitch>          <step>E</step>          <alter>-1</alter>          <octave>4</octave>        </pitch>        <duration>8</duration>        <voice>1</voice>        <type>quarter</type>        <stem>up</stem>        <staff>1</staff>      </note>      <backup>        <duration>32</duration>      </backup>      <forward>        <duration>8</duration>        <voice>2</voice>        <staff>1</staff>      </forward>      <forward>        <duration>8</duration>        <voice>2</voice>        <staff>1</staff>      </forward>      <note>        <pitch>          <step>G</step>          <octave>3</octave>        </pitch>        <duration>8</duration>        <voice>2</voice>        <type>quarter</type>        <stem>down</stem>        <staff>1</staff>      </note>      <note>        <chord/>        <pitch>          <step>D</step>          <octave>4</octave>        </pitch>        <duration>8</duration>        <voice>2</voice>        <type>quarter</type>        <stem>down</stem>        <staff>1</staff>      </note>      <forward>        <duration>8</duration>        <voice>2</voice>        <staff>1</staff>      </forward>      <direction placement="above">        <direction-type>          <dashes default-y="32" number="1" type="start"/>        </direction-type>        <staff>1</staff>      </direction>      <backup>        <duration>32</duration>      </backup>      <note>        <pitch>          <step>E</step>          <alter>-1</alter>          <octave>2</octave>        </pitch>        <duration>8</duration>        <voice>3</voice>        <type>quarter</type>        <stem>up</stem>        <staff>2</staff>      </note>      <note>        <chord/>        <pitch>          <step>E</step>          <alter>-1</alter>          <octave>3</octave>        </pitch>        <duration>8</duration>        <voice>3</voice>        <type>quarter</type>        <stem>up</stem>        <staff>2</staff>      </note>      <note>        <pitch>          <step>F</step>          <octave>2</octave>        </pitch>        <duration>8</duration>        <voice>3</voice>        <type>quarter</type>        <stem>up</stem>        <staff>2</staff>      </note>      <note>        <chord/>        <pitch>          <step>F</step>          <octave>3</octave>        </pitch>        <duration>8</duration>        <voice>3</voice>        <type>quarter</type>        <stem>up</stem>        <staff>2</staff>      </note>      <note>        <pitch>          <step>B</step>          <octave>1</octave>        </pitch>        <duration>8</duration>        <voice>3</voice>        <type>quarter</type>        <accidental>natural</accidental>        <stem>up</stem>        <staff>2</staff>      </note>      <note>        <chord/>        <pitch>          <step>B</step>          <octave>2</octave>        </pitch>        <duration>8</duration>        <voice>3</voice>        <type>quarter</type>        <accidental>natural</accidental>        <stem>up</stem>        <staff>2</staff>      </note>      <direction placement="above">        <direction-type>          <words default-y="29" font-family="Times New Roman" font-size="11.6" font-style="italic">riten. </words>        </direction-type>        <offset>-1</offset>        <staff>2</staff>      </direction>      <direction placement="below">        <direction-type>          <words default-y="-85" font-family="Times New Roman" font-size="10.8" font-style="italic">cresc.</words>        </direction-type>        <offset>-1</offset>        <staff>2</staff>      </direction>      <note>        <pitch>          <step>C</step>          <octave>2</octave>        </pitch>        <duration>8</duration>        <voice>3</voice>        <type>quarter</type>        <stem>up</stem>        <staff>2</staff>      </note>      <note>        <chord/>        <pitch>          <step>C</step>          <octave>3</octave>        </pitch>        <duration>8</duration>        <voice>3</voice>        <type>quarter</type>        <stem>up</stem>        <staff>2</staff>      </note>    </measure>    <!--=======================================================-->    <measure number="12">      <attributes>        <clef number="1">          <sign>F</sign>          <line>4</line>        </clef>      </attributes>      <note>        <pitch>          <step>E</step>          <alter>-1</alter>          <octave>3</octave>        </pitch>        <duration>8</duration>        <voice>1</voice>        <type>quarter</type>        <stem>up</stem>        <staff>1</staff>      </note>      <note>        <chord/>        <pitch>          <step>A</step>          <alter>-1</alter>          <octave>3</octave>        </pitch>        <duration>8</duration>        <voice>1</voice>        <type>quarter</type>        <stem>up</stem>        <staff>1</staff>      </note>      <note>        <chord/>        <pitch>          <step>C</step>          <octave>4</octave>        </pitch>        <duration>8</duration>        <voice>1</voice>        <type>quarter</type>        <stem>up</stem>        <staff>1</staff>      </note>      <note>        <chord/>        <pitch>          <step>E</step>          <alter>-1</alter>          <octave>4</octave>        </pitch>        <duration>8</duration>        <voice>1</voice>        <type>quarter</type>        <stem>up</stem>        <staff>1</staff>      </note>      <note>        <pitch>          <step>F</step>          <octave>3</octave>        </pitch>        <duration>8</duration>        <voice>1</voice>        <type>quarter</type>        <stem>up</stem>        <staff>1</staff>      </note>      <note>        <chord/>        <pitch>          <step>A</step>          <alter>-1</alter>          <octave>3</octave>        </pitch>        <duration>8</duration>        <voice>1</voice>        <type>quarter</type>        <stem>up</stem>        <staff>1</staff>      </note>      <note>        <chord/>        <pitch>          <step>D</step>          <alter>-1</alter>          <octave>4</octave>        </pitch>        <duration>8</duration>        <voice>1</voice>        <type>quarter</type>        <accidental>flat</accidental>        <stem>up</stem>        <staff>1</staff>      </note>      <note>        <chord/>        <pitch>          <step>F</step>          <octave>4</octave>        </pitch>        <duration>8</duration>        <voice>1</voice>        <type>quarter</type>        <stem>up</stem>        <staff>1</staff>      </note>      <note>        <pitch>          <step>E</step>          <alter>-1</alter>          <octave>4</octave>        </pitch>        <duration>6</duration>        <voice>1</voice>        <type>eighth</type>        <dot/>        <stem>up</stem>        <staff>1</staff>        <beam number="1">begin</beam>      </note>      <note>        <pitch>          <step>D</step>          <octave>4</octave>        </pitch>        <duration>2</duration>        <voice>1</voice>        <type>16th</type>        <accidental>natural</accidental>        <stem>up</stem>        <staff>1</staff>        <beam number="1">end</beam>        <beam number="2">backward hook</beam>      </note>      <note>        <pitch>          <step>E</step>          <alter>-1</alter>          <octave>3</octave>        </pitch>        <duration>8</duration>        <voice>1</voice>        <type>quarter</type>        <stem>up</stem>        <staff>1</staff>        <notations>          <slur number="1" type="stop"/>        </notations>      </note>      <note>        <chord/>        <pitch>          <step>G</step>          <octave>3</octave>        </pitch>        <duration>8</duration>        <voice>1</voice>        <type>quarter</type>        <stem>up</stem>        <staff>1</staff>      </note>      <note>        <chord/>        <pitch>          <step>C</step>          <octave>4</octave>        </pitch>        <duration>8</duration>        <voice>1</voice>        <type>quarter</type>        <stem>up</stem>        <staff>1</staff>      </note>      <backup>        <duration>32</duration>      </backup>      <forward>        <duration>8</duration>        <voice>2</voice>        <staff>1</staff>      </forward>      <forward>        <duration>8</duration>        <voice>2</voice>        <staff>1</staff>      </forward>      <note relative-x="5">        <pitch>          <step>F</step>          <octave>3</octave>        </pitch>        <duration>8</duration>        <voice>2</voice>        <type>quarter</type>        <stem>down</stem>        <staff>1</staff>      </note>      <note relative-x="5">        <chord/>        <pitch>          <step>G</step>          <octave>3</octave>        </pitch>        <duration>8</duration>        <voice>2</voice>        <type>quarter</type>        <stem>down</stem>        <staff>1</staff>      </note>      <note relative-x="5">        <chord/>        <pitch>          <step>B</step>          <octave>3</octave>        </pitch>        <duration>8</duration>        <voice>2</voice>        <type>quarter</type>        <accidental>natural</accidental>        <stem>down</stem>        <staff>1</staff>      </note>      <forward>        <duration>8</duration>        <voice>2</voice>        <staff>1</staff>      </forward>      <backup>        <duration>32</duration>      </backup>      <note>        <pitch>          <step>A</step>          <alter>-1</alter>          <octave>1</octave>        </pitch>        <duration>8</duration>        <voice>3</voice>        <type>quarter</type>        <stem>up</stem>        <staff>2</staff>      </note>      <note>        <chord/>        <pitch>          <step>A</step>          <alter>-1</alter>          <octave>2</octave>        </pitch>        <duration>8</duration>        <voice>3</voice>        <type>quarter</type>        <stem>up</stem>        <staff>2</staff>      </note>      <note>        <pitch>          <step>D</step>          <alter>-1</alter>          <octave>1</octave>        </pitch>        <duration>8</duration>        <voice>3</voice>        <type>quarter</type>        <accidental>flat</accidental>        <stem>up</stem>        <staff>2</staff>      </note>      <note>        <chord/>        <pitch>          <step>D</step>          <alter>-1</alter>          <octave>2</octave>        </pitch>        <duration>8</duration>        <voice>3</voice>        <type>quarter</type>        <accidental>flat</accidental>        <stem>up</stem>        <staff>2</staff>      </note>      <note>        <pitch>          <step>G</step>          <octave>1</octave>        </pitch>        <duration>8</duration>        <voice>3</voice>        <type>quarter</type>        <stem>up</stem>        <staff>2</staff>      </note>      <note>        <chord/>        <pitch>          <step>G</step>          <octave>2</octave>        </pitch>        <duration>8</duration>        <voice>3</voice>        <type>quarter</type>        <stem>up</stem>        <staff>2</staff>      </note>      <note>        <pitch>          <step>C</step>          <octave>1</octave>        </pitch>        <duration>8</duration>        <voice>3</voice>        <type>quarter</type>        <stem>up</stem>        <staff>2</staff>        <notations>          <slur number="2" type="stop"/>        </notations>      </note>      <note>        <chord/>        <pitch>          <step>C</step>          <octave>2</octave>        </pitch>        <duration>8</duration>        <voice>3</voice>        <type>quarter</type>        <stem>up</stem>        <staff>2</staff>      </note>    </measure>    <!--=======================================================-->    <measure number="13">      <attributes>        <clef number="1">          <sign>G</sign>          <line>2</line>        </clef>      </attributes>      <direction placement="above">        <direction-type>          <dashes default-y="29" number="1" relative-x="-13" type="stop"/>        </direction-type>        <staff>1</staff>      </direction>      <note>        <pitch>          <step>C</step>          <octave>4</octave>        </pitch>        <duration>32</duration>        <voice>1</voice>        <type>whole</type>        <staff>1</staff>        <notations>          <fermata type="upright"/>          <articulations>            <accent placement="below"/>          </articulations>        </notations>      </note>      <note>        <chord/>        <pitch>          <step>E</step>          <alter>-1</alter>          <octave>4</octave>        </pitch>        <duration>32</duration>        <voice>1</voice>        <type>whole</type>        <staff>1</staff>      </note>      <note>        <chord/>        <pitch>          <step>G</step>          <octave>4</octave>        </pitch>        <duration>32</duration>        <voice>1</voice>        <type>whole</type>        <staff>1</staff>      </note>      <note>        <chord/>        <pitch>          <step>C</step>          <octave>5</octave>        </pitch>        <duration>32</duration>        <voice>1</voice>        <type>whole</type>        <staff>1</staff>      </note>      <backup>        <duration>32</duration>      </backup>      <note>        <pitch>          <step>C</step>          <octave>3</octave>        </pitch>        <duration>32</duration>        <voice>3</voice>        <type>whole</type>        <staff>2</staff>        <notations>          <fermata type="upright"/>        </notations>      </note>      <note>        <chord/>        <pitch>          <step>G</step>          <octave>3</octave>        </pitch>        <duration>32</duration>        <voice>3</voice>        <type>whole</type>        <staff>2</staff>      </note>      <barline location="right">        <bar-style>light-heavy</bar-style>      </barline>    </measure>  </part>  <!--=========================================================--></score-partwise>